<?xml version="1.0" encoding="UTF-8" standalone="no"?>
<svg width="1200px" height="160px" viewBox="0 0 1200 160" version="1.1" xmlns="http://www.w3.org/2000/svg" xmlns:xlink="http://www.w3.org/1999/xlink" xmlns:sketch="http://www.bohemiancoding.com/sketch/ns">
    <!-- Generator: bin/sketchtool 1.4 (305) - http://www.bohemiancoding.com/sketch -->
    <title>tool-bar</title>
    <desc>Created with bin/sketchtool.</desc>
    <defs>
        <filter x="-50%" y="-50%" width="200%" height="200%" filterUnits="objectBoundingBox" id="filter-1">
            <feOffset dx="0" dy="2" in="SourceAlpha" result="shadowOffsetOuter1"></feOffset>
            <feGaussianBlur stdDeviation="5" in="shadowOffsetOuter1" result="shadowBlurOuter1"></feGaussianBlur>
            <feColorMatrix values="0 0 0 0 0   0 0 0 0 0   0 0 0 0 0  0 0 0 0.525 0" in="shadowBlurOuter1" type="matrix" result="shadowMatrixOuter1"></feColorMatrix>
            <feMerge>
                <feMergeNode in="shadowMatrixOuter1"></feMergeNode>
                <feMergeNode in="SourceGraphic"></feMergeNode>
            </feMerge>
        </filter>
    </defs>
    <g id="Page-1" stroke="none" stroke-width="1" fill="none" fill-rule="evenodd" sketch:type="MSPage">
        <g id="tool-bar" sketch:type="MSArtboardGroup">
            <g id="App-Bar" sketch:type="MSLayerGroup" transform="translate(0.000000, 60.000000)">
                <rect fill="#FFFFFF" filter="url(#filter-1)" sketch:type="MSShapeGroup" x="0" y="0" width="1200" height="65"></rect>
                <text id="Page-Title" sketch:type="MSTextLayer" font-family="Helvetica" font-size="20" font-weight="normal" fill="#424242">
                    <tspan x="70" y="38.2000008">Page Title</tspan>
                </text>
                <g id="Nav" transform="translate(25.000000, 25.000000)" fill="#424242" sketch:type="MSShapeGroup">
                    <path d="M0,11.0769231 L18,11.0769231 L18,9.23076923 L0,9.23076923 L0,11.0769231 L0,11.0769231 Z M0,6.46153846 L18,6.46153846 L18,4.61538462 L0,4.61538462 L0,6.46153846 L0,6.46153846 Z M0,0 L0,1.84615385 L18,1.84615385 L18,0 L0,0 L0,0 Z" id="Shape"></path>
                </g>
                <g id="menu" transform="translate(69.000000, 21.000000)" sketch:type="MSShapeGroup">
                    <rect id="bounds" x="0" y="0" width="24" height="24"></rect>
                </g>
            </g>
            <g id="Tool-Bar" sketch:type="MSLayerGroup" transform="translate(-10.000000, -5.000000)">
                <rect id="App-Bar" stroke="#979797" fill="#F1F1F1" sketch:type="MSShapeGroup" x="0" y="0" width="1216" height="65"></rect>
                <text id="Brand" sketch:type="MSTextLayer" font-family="Helvetica" font-size="20" font-weight="normal" fill="#424242">
                    <tspan x="33" y="41.7230776">Brand</tspan>
                </text>
                <rect id="Search" stroke="#E0E0E0" fill="#FFFFFF" sketch:type="MSShapeGroup" x="143" y="20" width="650" height="30" rx="1"></rect>
                <g id="menu" transform="translate(79.000000, 24.384615)" sketch:type="MSShapeGroup">
                    <rect id="bounds" x="0" y="0" width="24" height="22.1538462"></rect>
                </g>
                <path d="M1174,29 L1178,29 L1178,25 L1174,25 L1174,29 L1174,29 Z M1180,41 L1184,41 L1184,37 L1180,37 L1180,41 L1180,41 Z M1174,41 L1178,41 L1178,37 L1174,37 L1174,41 L1174,41 Z M1174,35 L1178,35 L1178,31 L1174,31 L1174,35 L1174,35 Z M1180,35 L1184,35 L1184,31 L1180,31 L1180,35 L1180,35 Z M1186,25 L1186,29 L1190,29 L1190,25 L1186,25 L1186,25 Z M1180,29 L1184,29 L1184,25 L1180,25 L1180,29 L1180,29 Z M1186,35 L1190,35 L1190,31 L1186,31 L1186,35 L1186,35 Z M1186,41 L1190,41 L1190,37 L1186,37 L1186,41 L1186,41 Z" id="Shape" fill="#424242" sketch:type="MSShapeGroup"></path>
                <rect id="Rectangle-70" fill="#2685D1" sketch:type="MSShapeGroup" x="733" y="20" width="60" height="30" rx="1"></rect>
                <path d="M767.5,37.255 L766.71,37.255 L766.43,36.985 C767.41,35.845 768,34.365 768,32.755 C768,29.165 765.09,26.255 761.5,26.255 C757.91,26.255 755,29.165 755,32.755 C755,36.345 757.91,39.255 761.5,39.255 C763.11,39.255 764.59,38.665 765.73,37.685 L766,37.965 L766,38.755 L771,43.745 L772.49,42.255 L767.5,37.255 L767.5,37.255 Z M761.5,37.255 C759.01,37.255 757,35.245 757,32.755 C757,30.265 759.01,28.255 761.5,28.255 C763.99,28.255 766,30.265 766,32.755 C766,35.245 763.99,37.255 761.5,37.255 L761.5,37.255 Z" id="Shape" fill="#FFFFFF" sketch:type="MSShapeGroup"></path>
            </g>
        </g>
    </g>
</svg>