<?xml version="1.0" encoding="UTF-8" standalone="no"?>
<svg width="803px" height="313px" viewBox="0 0 803 313" version="1.1" xmlns="http://www.w3.org/2000/svg" xmlns:xlink="http://www.w3.org/1999/xlink" xmlns:sketch="http://www.bohemiancoding.com/sketch/ns">
    <!-- Generator: bin/sketchtool 1.3 (252) - http://www.bohemiancoding.com/sketch -->
    <title>Page 1</title>
    <desc>Created with bin/sketchtool.</desc>
    <defs></defs>
    <g id="Page-1" stroke="none" stroke-width="1" fill="none" fill-rule="evenodd" sketch:type="MSPage">
        <path d="M2,311 L2,1" id="Y" stroke="#607D8B" stroke-linecap="square" stroke-dasharray="6,3" sketch:type="MSShapeGroup"></path>
        <path id="Y-decoration-1" d="M-1,1 C1.1,1 2.9,1 5,1" stroke="#607D8B" stroke-linecap="square" stroke-dasharray="6,3"></path>
        <path d="M2,311 L802,311" id="X" stroke="#607D8B" stroke-linecap="square" stroke-dasharray="6,3" sketch:type="MSShapeGroup"></path>
        <path id="X-decoration-1" d="M802,308 C802,310.1 802,311.9 802,314" stroke="#607D8B" stroke-linecap="square" stroke-dasharray="6,3"></path>
        <path d="M262,310.5 L802,310.5" id="0---Content" stroke="#000000" stroke-linecap="square" sketch:type="MSShapeGroup"></path>
        <path d="M17,261 L262,261" id="50---App-Bar" stroke="#2196F3" stroke-width="2" stroke-linecap="square" sketch:type="MSShapeGroup"></path>
        <path d="M242,251 L282,251" id="60---FAB" stroke="#FF9800" stroke-width="2" stroke-linecap="square" sketch:type="MSShapeGroup"></path>
        <g id="80---Nav-Drawer-Toggle" sketch:type="MSLayerGroup" transform="translate(27.000000, 230.000000)" stroke="#000000" stroke-width="2" stroke-linecap="square">
            <path d="M30,1 L40,1" id="3" sketch:type="MSShapeGroup"></path>
            <path d="M15,1 L25,1" id="2" sketch:type="MSShapeGroup"></path>
            <path d="M0,1 L10,1" id="1" sketch:type="MSShapeGroup"></path>
        </g>
        <path d="M2,116 L792,116" id="199---Navigation-Drawer-Dropshadow" stroke="#9E9E9E" stroke-linecap="square" sketch:type="MSShapeGroup"></path>
        <path d="M2,111 L792,111" id="200---Navigation-Drawer" stroke="#000000" stroke-linecap="square" sketch:type="MSShapeGroup"></path>
        <path d="M2,71 L792,71" id="249---Modal-Dropshadow" stroke="#9E9E9E" stroke-linecap="square" sketch:type="MSShapeGroup"></path>
        <path d="M192,61 L592,61" id="250---Modal-Window" stroke="#000000" stroke-linecap="square" sketch:type="MSShapeGroup"></path>
        <path d="M3,11 L28,11" id="300---Status-Bar" stroke="#2196F3" stroke-width="2" stroke-linecap="square" sketch:type="MSShapeGroup"></path>
    </g>
</svg>